<svg version="1.1" id="Layer_1" xmlns="http://www.w3.org/2000/svg" xmlns:xlink="http://www.w3.org/1999/xlink" x="0px" y="0px"
	 width="100%" viewBox="0 0 400 266" enable-background="new 0 0 400 266" xml:space="preserve">
<path fill="#FEFEFE" opacity="1.000000" stroke="none" 
	d="
M285.000000,267.000000 
	C190.000031,267.000000 95.500069,267.000000 1.000076,267.000000 
	C1.000051,178.333405 1.000051,89.666801 1.000025,1.000147 
	C134.333221,1.000098 267.666443,1.000098 400.999756,1.000049 
	C400.999817,89.666527 400.999817,178.333054 400.999908,266.999786 
	C362.500000,267.000000 324.000000,267.000000 285.000000,267.000000 
M169.088455,71.463478 
	C169.077805,71.101357 168.913208,70.834183 168.562454,70.623344 
	C168.562454,70.623344 168.602142,70.587723 168.392548,69.917816 
	C167.271988,67.928162 166.151428,65.938507 164.993820,63.987118 
	C164.993820,63.987118 165.046799,63.981991 164.956039,63.375546 
	C164.680252,63.087288 164.404465,62.799034 164.035385,61.855827 
	C159.743515,55.026680 154.602707,49.121746 147.533371,44.890587 
	C141.290314,41.153980 129.873459,43.108337 126.292816,49.778522 
	C123.957375,54.129089 121.375221,58.517342 120.053360,63.212421 
	C114.349014,83.473412 117.352478,103.395561 123.421730,123.042152 
	C126.208435,132.062927 126.373245,132.011841 135.989380,132.002625 
	C138.653122,132.000061 141.326859,132.131790 143.975800,131.932892 
	C145.064453,131.851135 146.099716,131.058350 147.475235,130.449005 
	C142.123062,123.919037 137.245926,117.968651 132.368805,112.018272 
	C132.750854,111.660057 133.132919,111.301842 133.514984,110.943626 
	C137.726639,113.600548 141.938293,116.257469 146.149948,118.914391 
	C146.417709,118.617180 146.685471,118.319969 146.953232,118.022758 
	C141.888260,109.563583 136.823273,101.104408 131.758301,92.645226 
	C132.031433,92.473549 132.304581,92.301872 132.577728,92.130196 
	C135.675522,95.503571 138.773300,98.876945 141.871094,102.250320 
	C142.408066,102.008568 142.945038,101.766815 143.482025,101.525070 
	C144.189163,93.629349 137.303650,87.764992 136.224289,79.876274 
	C141.039200,84.228905 141.768875,91.409279 148.775101,94.913078 
	C146.397949,87.342491 144.375549,80.901688 142.921539,74.056030 
	C143.100510,73.907433 143.279465,73.758842 143.819702,74.061035 
	C144.213928,74.705589 144.608154,75.350151 144.987686,76.511742 
	C145.029999,76.678886 145.072327,76.846031 145.073837,77.557755 
	C145.360428,77.769928 145.647034,77.982101 146.000931,78.740402 
	C146.299820,79.174026 146.598724,79.607651 146.968475,80.778572 
	C148.764923,84.779198 150.561356,88.779831 152.357788,92.780457 
	C152.736572,92.674232 153.115356,92.568008 153.494156,92.461784 
	C152.327148,87.975266 151.160156,83.488754 150.052551,78.320747 
	C149.950638,77.880356 149.848740,77.439957 149.770905,76.448402 
	C149.521378,75.963547 149.271851,75.478699 149.082260,74.307434 
	C148.777115,73.231789 148.471970,72.156136 148.859879,71.038422 
	C149.815750,72.464363 150.771622,73.890305 151.845078,75.281006 
	C151.845078,75.281006 151.798508,75.394569 151.741135,76.152061 
	C153.638992,81.658981 155.536850,87.165901 157.434708,92.672821 
	C157.743866,92.621056 158.053024,92.569290 158.362198,92.517532 
	C157.432983,86.412949 156.503784,80.308365 155.574570,74.203781 
	C155.919556,74.146072 156.264542,74.088356 156.609512,74.030647 
	C158.538406,80.461754 160.467285,86.892860 162.396179,93.323959 
	C162.578415,93.297714 162.760651,93.271461 162.942886,93.245209 
	C162.942886,89.496956 162.942886,85.748695 163.057922,81.253883 
	C163.005920,80.502312 162.953918,79.750748 163.025223,78.207275 
	C163.369614,77.130127 163.714005,76.052979 163.967880,75.742317 
	C164.090073,76.495476 164.212250,77.248634 164.350693,78.756195 
	C164.906921,81.168121 165.463150,83.580048 165.936676,86.668068 
	C166.014877,87.112175 166.093079,87.556274 166.151245,88.785919 
	C166.814148,91.407120 167.477036,94.028320 168.139938,96.649529 
	C168.607086,96.562836 169.074234,96.476143 169.541382,96.389450 
	C169.962326,91.593925 170.383255,86.798409 170.962769,81.161324 
	C170.649536,78.772217 170.336304,76.383102 170.010376,73.382385 
	C169.697556,72.885910 169.384735,72.389442 169.024216,71.963318 
	C169.024216,71.963318 169.108902,71.956093 169.088455,71.463478 
M168.421326,170.691086 
	C171.140350,173.433426 173.682434,172.108765 176.357742,170.491623 
	C200.927917,155.639816 225.526001,140.834167 250.104691,125.996468 
	C251.220627,125.322800 252.229004,124.470970 253.287476,123.702118 
	C253.154037,123.127686 253.020615,122.553246 252.887177,121.978813 
	C245.415359,121.978813 237.939301,121.841522 230.474548,122.071228 
	C228.502655,122.131905 226.175949,122.847008 224.673859,124.072594 
	C212.044434,134.377029 199.622787,144.935745 187.021820,155.275604 
	C181.675095,159.662933 176.049377,163.710251 170.853760,166.854202 
	C185.879303,152.221069 200.904846,137.587952 216.649750,122.254242 
	C209.551987,122.893921 203.563232,123.125656 197.700760,124.109779 
	C195.270065,124.517815 192.350174,125.983376 190.950272,127.910538 
	C182.378754,139.710449 174.172180,151.775726 165.862396,163.765305 
	C164.226212,166.126022 162.670181,168.542297 161.077194,170.932953 
	C161.288727,171.230331 161.500259,171.527725 161.711792,171.825104 
	C163.822830,171.197159 165.933868,170.569214 168.421326,170.691086 
M224.705734,100.898476 
	C230.212845,94.376312 235.719955,87.854149 241.227066,81.331978 
	C241.606308,81.642250 241.985535,81.952522 242.364777,82.262794 
	C237.548859,89.483658 232.732956,96.704521 227.433868,104.106377 
	C227.414764,104.324524 227.395676,104.542671 227.376572,104.760818 
	C227.748016,104.722748 228.119461,104.684677 229.055695,104.271400 
	C236.514114,97.596245 243.972519,90.921097 251.430939,84.245941 
	C251.794373,84.608673 252.157806,84.971397 252.521255,85.334129 
	C246.138870,92.205864 239.756500,99.077591 232.937088,106.419868 
	C234.579605,106.780724 235.182709,107.126549 235.501083,106.952263 
	C246.123459,101.137306 258.107269,96.845551 266.969818,89.021149 
	C278.298615,79.019402 285.948975,65.459030 288.783783,50.061962 
	C291.060944,37.693607 283.836884,29.146580 271.169586,29.068913 
	C266.901154,29.042744 262.424927,29.459635 258.385437,30.746632 
	C221.660400,42.447376 194.894974,66.036385 177.315338,100.077354 
	C174.743973,105.056526 174.035492,110.997734 172.395477,116.737267 
	C178.524368,118.361801 183.593582,119.705460 189.294830,121.216644 
	C187.217773,116.148926 185.416901,111.755058 184.135208,106.826607 
	C184.294418,106.635933 184.453629,106.445259 185.123642,106.687508 
	C188.170837,109.613121 191.218033,112.538734 194.994888,116.164894 
	C194.629089,108.323311 194.315903,101.609581 194.002716,94.895851 
	C194.265854,94.878471 194.528992,94.861099 194.792130,94.843719 
	C196.841339,99.978165 198.890533,105.112610 201.308090,111.169991 
	C203.508270,101.971840 205.441818,93.888390 207.375366,85.804947 
	C207.667969,85.847504 207.960556,85.890060 208.253159,85.932617 
	C208.253159,92.757835 208.253159,99.583054 208.253159,107.703743 
	C212.633652,98.113960 216.453079,89.752441 220.272522,81.390923 
	C220.551468,81.498466 220.830414,81.606018 221.109360,81.713570 
	C219.934021,86.700699 218.758667,91.687836 217.583328,96.674965 
	C218.281616,97.023582 218.979889,97.372192 219.678162,97.720810 
	C223.955978,91.195541 228.233810,84.670273 232.511642,78.145012 
	C232.813217,78.298637 233.114792,78.452263 233.416367,78.605896 
	C230.119171,85.907562 226.821976,93.209236 223.267212,100.869331 
	C223.340408,101.136124 223.413589,101.402916 223.486755,101.669708 
	C223.671478,101.462158 223.856201,101.254608 224.705734,100.898476 
M269.318176,148.908859 
	C241.473557,157.791794 213.628937,166.674728 185.389618,175.683578 
	C189.206635,179.291077 192.736313,180.698975 197.485962,180.126495 
	C214.478287,178.078384 231.621246,177.092163 248.514297,174.464081 
	C263.696747,172.102142 277.092651,165.047348 288.295197,154.334564 
	C291.708435,151.070572 294.162964,147.161469 292.870209,141.359085 
	C285.120789,143.851318 277.602753,146.269135 269.318176,148.908859 
M222.701630,159.114105 
	C244.142700,150.782242 265.583771,142.450363 287.024872,134.118500 
	C287.016602,133.597809 287.008331,133.077103 287.000061,132.556412 
	C281.448212,130.501434 275.994934,128.076385 270.299744,126.559555 
	C267.745300,125.879211 264.366302,126.304321 261.949066,127.458473 
	C253.431549,131.525299 245.173248,136.134140 236.808167,140.521271 
	C216.576752,151.131836 196.340591,161.733368 176.106339,172.338516 
	C176.139420,172.854416 176.172485,173.370316 176.205566,173.886215 
	C179.135162,173.886215 182.357819,174.691193 184.944611,173.749466 
	C197.383057,169.221298 209.649826,164.221588 222.701630,159.114105 
M208.477356,198.999542 
	C200.683304,198.999542 192.889267,198.999542 184.693588,198.999542 
	C184.800369,200.717453 184.884842,202.076553 184.983475,203.663437 
	C188.886505,203.663437 192.336227,203.663437 195.943985,203.663437 
	C196.524536,207.752197 194.221405,209.796310 191.189499,211.015930 
	C188.402252,212.137131 185.405457,212.737381 181.777390,213.773849 
	C183.874725,215.223495 185.809250,217.627167 187.235367,217.356094 
	C192.556717,216.344681 197.711365,214.456146 203.649597,212.681168 
	C210.257889,218.652649 217.875641,219.240585 221.702911,213.217484 
	C212.261871,212.071243 208.740036,209.581406 208.443283,203.409271 
	C212.209641,203.409271 215.962296,203.409271 219.678268,203.409271 
	C219.678268,201.721710 219.678268,200.485580 219.678268,198.999542 
	C216.095642,198.999542 212.781769,198.999542 208.477356,198.999542 
M169.576447,153.107819 
	C174.663300,144.205994 179.750153,135.304169 185.314133,125.567398 
	C179.631287,126.687325 174.739258,127.419426 170.009949,128.736038 
	C168.724304,129.093948 167.445404,131.064636 166.985703,132.549667 
	C163.265671,144.566788 159.729019,156.640869 156.184692,168.711731 
	C155.931107,169.575363 156.059143,170.551056 156.009750,171.474640 
	C156.606537,171.825806 157.203308,172.176971 157.800095,172.528137 
	C162.397034,166.841492 165.356644,159.974442 169.576447,153.107819 
M135.525406,159.012955 
	C137.858490,162.645264 140.382416,166.172073 142.466354,169.942093 
	C144.244995,173.159836 146.163712,173.695206 149.065842,171.421127 
	C146.583344,159.814087 144.131714,148.351318 141.534500,136.207901 
	C135.834396,138.557831 130.631866,140.702637 125.204498,142.940125 
	C128.835510,148.651611 131.950943,153.552109 135.525406,159.012955 
M125.869011,216.402237 
	C124.958786,216.742966 124.048561,217.083694 123.142174,217.434570 
	C128.042709,222.597855 130.614212,222.217438 138.755020,215.124847 
	C147.236343,222.274475 149.808655,222.659271 154.176010,217.431686 
	C145.760727,214.235199 143.206497,211.075241 143.539124,203.929443 
	C146.145630,203.929443 148.770111,203.929443 151.709244,203.929443 
	C151.620239,202.377609 151.550842,201.167755 151.472977,199.810059 
	C142.872208,199.810059 134.585327,199.810059 126.200867,199.810059 
	C126.200867,201.210907 126.200867,202.462372 126.200867,204.151703 
	C128.964294,204.151703 131.534332,204.151703 134.106735,204.151703 
	C134.553802,210.380615 131.651733,213.954712 125.869011,216.402237 
M260.511475,226.003662 
	C262.968201,225.537323 265.424927,225.070999 267.881653,224.604675 
	C267.975403,224.047653 268.069153,223.490631 268.162903,222.933609 
	C255.487411,219.156128 256.748322,208.817444 256.844940,199.212311 
	C253.363403,199.212311 250.444397,199.212311 247.558350,199.212311 
	C245.188599,217.761597 245.188599,217.761597 235.977829,223.550049 
	C237.661346,224.727951 239.768341,227.102646 240.711746,226.706497 
	C244.816406,224.982788 248.582321,222.452408 252.399033,220.256668 
	C254.578461,221.858948 257.204956,223.789902 260.511475,226.003662 
M278.826355,199.036942 
	C275.986786,198.764999 273.147217,198.493042 270.354980,198.225632 
	C270.354980,212.264969 270.354980,225.601471 270.354980,238.799133 
	C273.331696,238.799133 275.947174,238.799133 278.992889,238.799133 
	C278.992889,225.740417 278.992889,212.841125 278.826355,199.036942 
M148.778244,153.881088 
	C149.205002,158.844696 149.522034,163.822052 150.141129,168.761551 
	C150.283249,169.895401 151.463837,170.899063 152.166504,171.962646 
	C152.885239,171.055008 154.013611,170.242584 154.250565,169.222977 
	C155.187531,165.191010 155.878662,161.100037 156.599472,157.020081 
	C158.116592,148.432816 159.594955,139.838730 161.215454,130.521729 
	C156.059067,131.960709 151.673386,133.184616 146.751633,134.558121 
	C147.399673,140.845276 148.024857,146.910767 148.778244,153.881088 
M128.320282,168.177536 
	C129.905975,169.380264 131.607086,170.459641 133.052521,171.812225 
	C135.785797,174.369949 138.622650,175.006058 142.315155,172.798187 
	C134.797745,163.689743 127.446777,154.782959 119.770439,145.481934 
	C115.917595,148.122620 112.342278,150.573090 108.436455,153.250076 
	C115.276291,158.417770 121.491722,163.113708 128.320282,168.177536 
M195.502823,220.995209 
	C190.373093,220.995209 185.243362,220.995209 179.807739,220.995209 
	C179.911591,222.632996 179.987885,223.836212 180.093781,225.506042 
	C186.155457,225.506042 191.896713,225.506042 198.051453,225.506042 
	C198.051453,230.068100 198.051453,234.140961 198.051453,238.066772 
	C201.252563,238.066772 203.983414,238.066772 207.119995,238.066772 
	C207.119995,233.619751 207.119995,229.532562 207.119995,225.013626 
	C213.275803,225.013626 219.023987,225.013626 224.644424,225.013626 
	C224.644424,223.468246 224.644424,222.386185 224.644424,220.995209 
	C215.107788,220.995209 205.804611,220.995209 195.502823,220.995209 
M161.396500,198.371353 
	C159.650787,198.371353 157.905075,198.371353 155.882965,198.371353 
	C155.882965,201.962219 155.882965,204.909332 155.882965,207.676041 
	C153.466049,209.145782 147.630508,205.888229 149.748520,212.848480 
	C151.766983,212.848480 153.690414,212.848480 156.079956,212.848480 
	C156.079956,217.710770 156.079956,222.267700 156.079956,226.752350 
	C159.286316,226.752350 162.016403,226.752350 165.013123,226.752350 
	C165.013123,218.073257 165.101227,209.648804 164.893677,201.231628 
	C164.869659,200.257477 163.203705,199.323807 161.396500,198.371353 
M155.469299,233.985931 
	C150.509247,233.985931 145.549210,233.985931 140.108612,233.985931 
	C140.108612,230.547516 140.108612,227.480698 140.108612,224.492645 
	C137.014069,224.492645 134.414307,224.492645 131.308441,224.492645 
	C131.308441,227.658646 131.302322,230.605865 131.310089,233.553055 
	C131.318741,236.836304 132.948822,238.355606 136.254593,238.337845 
	C145.707672,238.287064 155.161209,238.319992 164.874969,238.319992 
	C164.951996,236.837570 165.016357,235.599152 165.100189,233.985931 
	C162.056290,233.985931 159.256744,233.985931 155.469299,233.985931 
z"/>
<path fill="#1BAF6A" opacity="1.000000" stroke="none" 
	d="
M183.616028,107.361191 
	C185.416901,111.755058 187.217773,116.148926 189.294830,121.216644 
	C183.593582,119.705460 178.524368,118.361801 172.395477,116.737267 
	C174.035492,110.997734 174.743973,105.056526 177.315338,100.077354 
	C194.894974,66.036385 221.660400,42.447376 258.385437,30.746632 
	C262.424927,29.459635 266.901154,29.042744 271.169586,29.068913 
	C283.836884,29.146580 291.060944,37.693607 288.783783,50.061962 
	C285.948975,65.459030 278.298615,79.019402 266.969818,89.021149 
	C258.107269,96.845551 246.123459,101.137306 235.501083,106.952263 
	C235.182709,107.126549 234.579605,106.780724 232.937088,106.419868 
	C239.756500,99.077591 246.138870,92.205864 252.521255,85.334129 
	C252.157806,84.971397 251.794373,84.608673 251.430939,84.245941 
	C243.972519,90.921097 236.514114,97.596245 228.642059,104.268974 
	C228.228424,104.266548 227.917053,103.925385 227.917053,103.925385 
	C232.732956,96.704521 237.548859,89.483658 242.364777,82.262794 
	C241.985535,81.952522 241.606308,81.642250 241.227066,81.331978 
	C235.719955,87.854149 230.212845,94.376312 224.248230,100.834946 
	C223.790741,100.771408 223.524796,100.510902 223.524796,100.510902 
	C226.821976,93.209236 230.119171,85.907562 233.416367,78.605896 
	C233.114792,78.452263 232.813217,78.298637 232.511642,78.145012 
	C228.233810,84.670273 223.955978,91.195541 219.678162,97.720810 
	C218.979889,97.372192 218.281616,97.023582 217.583328,96.674965 
	C218.758667,91.687836 219.934021,86.700699 221.109360,81.713570 
	C220.830414,81.606018 220.551468,81.498466 220.272522,81.390923 
	C216.453079,89.752441 212.633652,98.113960 208.253159,107.703743 
	C208.253159,99.583054 208.253159,92.757835 208.253159,85.932617 
	C207.960556,85.890060 207.667969,85.847504 207.375366,85.804947 
	C205.441818,93.888390 203.508270,101.971840 201.308090,111.169991 
	C198.890533,105.112610 196.841339,99.978165 194.792130,94.843719 
	C194.528992,94.861099 194.265854,94.878471 194.002716,94.895851 
	C194.315903,101.609581 194.629089,108.323311 194.994888,116.164894 
	C191.218033,112.538734 188.170837,109.613121 184.671326,106.247284 
	C183.860229,105.661308 183.501434,105.515549 183.142654,105.369797 
	C183.300446,106.033592 183.458237,106.697395 183.616028,107.361191 
M252.960205,82.886986 
	C252.972549,83.249878 252.984909,83.612770 252.997253,83.975662 
	C253.406281,83.725838 253.815292,83.476006 254.700684,83.042267 
	C254.854172,82.749069 255.007645,82.455872 255.734924,81.880554 
	C255.672409,81.514618 255.609894,81.148674 255.547363,80.782738 
	C255.191391,81.014938 254.835403,81.247131 254.121628,81.738884 
	C253.889893,81.923882 253.675476,82.127129 252.960205,82.886986 
M243.773895,80.538239 
	C243.487366,80.206390 243.200851,79.874542 242.914352,79.542694 
	C242.984451,80.014359 243.054565,80.486023 243.773895,80.538239 
z"/>
<path fill="#1D64B7" opacity="1.000000" stroke="none" 
	d="
M142.353149,74.460884 
	C144.375549,80.901688 146.397949,87.342491 148.775101,94.913078 
	C141.768875,91.409279 141.039200,84.228905 136.224289,79.876274 
	C137.303650,87.764992 144.189163,93.629349 143.482025,101.525070 
	C142.945038,101.766815 142.408066,102.008568 141.871094,102.250320 
	C138.773300,98.876945 135.675522,95.503571 132.577728,92.130196 
	C132.304581,92.301872 132.031433,92.473549 131.758301,92.645226 
	C136.823273,101.104408 141.888260,109.563583 146.953232,118.022758 
	C146.685471,118.319969 146.417709,118.617180 146.149948,118.914391 
	C141.938293,116.257469 137.726639,113.600548 133.514984,110.943626 
	C133.132919,111.301842 132.750854,111.660057 132.368805,112.018272 
	C137.245926,117.968651 142.123062,123.919037 147.475235,130.449005 
	C146.099716,131.058350 145.064453,131.851135 143.975800,131.932892 
	C141.326859,132.131790 138.653122,132.000061 135.989380,132.002625 
	C126.373245,132.011841 126.208435,132.062927 123.421730,123.042152 
	C117.352478,103.395561 114.349014,83.473412 120.053360,63.212421 
	C121.375221,58.517342 123.957375,54.129089 126.292816,49.778522 
	C129.873459,43.108337 141.290314,41.153980 147.533371,44.890587 
	C154.602707,49.121746 159.743515,55.026680 164.130203,62.486687 
	C164.498947,63.405697 164.772873,63.693844 165.046799,63.981991 
	C165.046799,63.981991 164.993820,63.987118 165.002716,64.369148 
	C163.067612,68.102623 161.123627,71.454063 158.944885,75.210236 
	C157.370880,71.556618 156.152054,68.727448 154.585815,65.091873 
	C153.224121,67.456604 152.490219,68.731125 151.117767,71.114532 
	C149.450012,67.422653 148.225372,64.711678 147.220490,61.838623 
	C147.385956,61.272758 147.331665,60.868969 147.277374,60.465179 
	C146.851364,60.976021 146.425354,61.486866 145.729279,62.228477 
	C146.361755,65.332993 147.264282,68.206741 148.166824,71.080490 
	C148.471970,72.156136 148.777115,73.231789 148.796600,74.653244 
	C148.340515,75.002373 148.170074,75.005684 147.662079,75.008141 
	C146.550476,75.336426 145.776428,75.665565 145.002380,75.994705 
	C144.608154,75.350151 144.213928,74.705589 143.516144,73.545219 
	C142.887192,72.783821 142.561829,72.538231 142.236450,72.292641 
	C142.275345,73.015388 142.314240,73.738136 142.353149,74.460884 
M132.880341,110.735184 
	C132.386124,110.586731 131.891891,110.438278 131.397675,110.289825 
	C131.761581,110.669373 132.125488,111.048927 132.880341,110.735184 
z"/>
<path fill="#F47217" opacity="1.000000" stroke="none" 
	d="
M269.701447,148.797913 
	C277.602753,146.269135 285.120789,143.851318 292.870209,141.359085 
	C294.162964,147.161469 291.708435,151.070572 288.295197,154.334564 
	C277.092651,165.047348 263.696747,172.102142 248.514297,174.464081 
	C231.621246,177.092163 214.478287,178.078384 197.485962,180.126495 
	C192.736313,180.698975 189.206635,179.291077 185.389618,175.683578 
	C213.628937,166.674728 241.473557,157.791794 269.701447,148.797913 
z"/>
<path fill="#F47317" opacity="1.000000" stroke="none" 
	d="
M222.339600,159.251678 
	C209.649826,164.221588 197.383057,169.221298 184.944611,173.749466 
	C182.357819,174.691193 179.135162,173.886215 176.205566,173.886215 
	C176.172485,173.370316 176.139420,172.854416 176.106339,172.338516 
	C196.340591,161.733368 216.576752,151.131836 236.808167,140.521271 
	C245.173248,136.134140 253.431549,131.525299 261.949066,127.458473 
	C264.366302,126.304321 267.745300,125.879211 270.299744,126.559555 
	C275.994934,128.076385 281.448212,130.501434 287.000061,132.556412 
	C287.008331,133.077103 287.016602,133.597809 287.024872,134.118500 
	C265.583771,142.450363 244.142700,150.782242 222.339600,159.251678 
z"/>
<path fill="#F47317" opacity="1.000000" stroke="none" 
	d="
M170.550461,167.912109 
	C176.049377,163.710251 181.675095,159.662933 187.021820,155.275604 
	C199.622787,144.935745 212.044434,134.377029 224.673859,124.072594 
	C226.175949,122.847008 228.502655,122.131905 230.474548,122.071228 
	C237.939301,121.841522 245.415359,121.978813 252.887177,121.978813 
	C253.020615,122.553246 253.154037,123.127686 253.287476,123.702118 
	C252.229004,124.470970 251.220627,125.322800 250.104691,125.996468 
	C225.526001,140.834167 200.927917,155.639816 176.357742,170.491623 
	C173.682434,172.108765 171.140350,173.433426 168.210175,170.340210 
	C167.999023,169.989349 167.946045,170.029480 168.328476,170.168732 
	C169.140961,169.705292 169.571014,169.102600 170.067276,168.428650 
	C170.272858,168.209305 170.411850,168.060883 170.550461,167.912109 
z"/>
<path fill="#F47217" opacity="1.000000" stroke="none" 
	d="
M170.702118,167.383148 
	C170.411850,168.060883 170.272858,168.209305 169.698792,168.322418 
	C168.824768,168.868134 168.385406,169.448807 167.946045,170.029480 
	C167.946045,170.029480 167.999023,169.989349 168.021973,169.965302 
	C165.933868,170.569214 163.822830,171.197159 161.711792,171.825104 
	C161.500259,171.527725 161.288727,171.230331 161.077194,170.932953 
	C162.670181,168.542297 164.226212,166.126022 165.862396,163.765305 
	C174.172180,151.775726 182.378754,139.710449 190.950272,127.910538 
	C192.350174,125.983376 195.270065,124.517815 197.700760,124.109779 
	C203.563232,123.125656 209.551987,122.893921 216.649750,122.254242 
	C200.904846,137.587952 185.879303,152.221069 170.702118,167.383148 
z"/>
<path fill="#060606" opacity="1.000000" stroke="none" 
	d="
M208.972626,198.999542 
	C212.781769,198.999542 216.095642,198.999542 219.678268,198.999542 
	C219.678268,200.485580 219.678268,201.721710 219.678268,203.409271 
	C215.962296,203.409271 212.209641,203.409271 208.443283,203.409271 
	C208.740036,209.581406 212.261871,212.071243 221.702911,213.217484 
	C217.875641,219.240585 210.257889,218.652649 203.649597,212.681168 
	C197.711365,214.456146 192.556717,216.344681 187.235367,217.356094 
	C185.809250,217.627167 183.874725,215.223495 181.777390,213.773849 
	C185.405457,212.737381 188.402252,212.137131 191.189499,211.015930 
	C194.221405,209.796310 196.524536,207.752197 195.943985,203.663437 
	C192.336227,203.663437 188.886505,203.663437 184.983475,203.663437 
	C184.884842,202.076553 184.800369,200.717453 184.693588,198.999542 
	C192.889267,198.999542 200.683304,198.999542 208.972626,198.999542 
z"/>
<path fill="#F47318" opacity="1.000000" stroke="none" 
	d="
M169.374054,153.415955 
	C165.356644,159.974442 162.397034,166.841492 157.800095,172.528137 
	C157.203308,172.176971 156.606537,171.825806 156.009750,171.474640 
	C156.059143,170.551056 155.931107,169.575363 156.184692,168.711731 
	C159.729019,156.640869 163.265671,144.566788 166.985703,132.549667 
	C167.445404,131.064636 168.724304,129.093948 170.009949,128.736038 
	C174.739258,127.419426 179.631287,126.687325 185.314133,125.567398 
	C179.750153,135.304169 174.663300,144.205994 169.374054,153.415955 
z"/>
<path fill="#F47318" opacity="1.000000" stroke="none" 
	d="
M135.295898,158.732788 
	C131.950943,153.552109 128.835510,148.651611 125.204498,142.940125 
	C130.631866,140.702637 135.834396,138.557831 141.534500,136.207901 
	C144.131714,148.351318 146.583344,159.814087 149.065842,171.421127 
	C146.163712,173.695206 144.244995,173.159836 142.466354,169.942093 
	C140.382416,166.172073 137.858490,162.645264 135.295898,158.732788 
z"/>
<path fill="#050505" opacity="1.000000" stroke="none" 
	d="
M126.202751,216.237488 
	C131.651733,213.954712 134.553802,210.380615 134.106735,204.151703 
	C131.534332,204.151703 128.964294,204.151703 126.200867,204.151703 
	C126.200867,202.462372 126.200867,201.210907 126.200867,199.810059 
	C134.585327,199.810059 142.872208,199.810059 151.472977,199.810059 
	C151.550842,201.167755 151.620239,202.377609 151.709244,203.929443 
	C148.770111,203.929443 146.145630,203.929443 143.539124,203.929443 
	C143.206497,211.075241 145.760727,214.235199 154.176010,217.431686 
	C149.808655,222.659271 147.236343,222.274475 138.755020,215.124847 
	C130.614212,222.217438 128.042709,222.597855 123.140259,217.429489 
	C124.048561,217.083694 124.958786,216.742966 126.202751,216.237488 
z"/>
<path fill="#080808" opacity="1.000000" stroke="none" 
	d="
M260.171478,225.862259 
	C257.204956,223.789902 254.578461,221.858948 252.399033,220.256668 
	C248.582321,222.452408 244.816406,224.982788 240.711746,226.706497 
	C239.768341,227.102646 237.661346,224.727951 235.977829,223.550049 
	C245.188599,217.761597 245.188599,217.761597 247.558350,199.212311 
	C250.444397,199.212311 253.363403,199.212311 256.844940,199.212311 
	C256.748322,208.817444 255.487411,219.156128 268.162903,222.933609 
	C268.069153,223.490631 267.975403,224.047653 267.881653,224.604675 
	C265.424927,225.070999 262.968201,225.537323 260.171478,225.862259 
z"/>
<path fill="#030303" opacity="1.000000" stroke="none" 
	d="
M278.909607,199.489380 
	C278.992889,212.841125 278.992889,225.740417 278.992889,238.799133 
	C275.947174,238.799133 273.331696,238.799133 270.354980,238.799133 
	C270.354980,225.601471 270.354980,212.264969 270.354980,198.225632 
	C273.147217,198.493042 275.986786,198.764999 278.909607,199.489380 
z"/>
<path fill="#F47319" opacity="1.000000" stroke="none" 
	d="
M148.714142,153.428680 
	C148.024857,146.910767 147.399673,140.845276 146.751633,134.558121 
	C151.673386,133.184616 156.059067,131.960709 161.215454,130.521729 
	C159.594955,139.838730 158.116592,148.432816 156.599472,157.020081 
	C155.878662,161.100037 155.187531,165.191010 154.250565,169.222977 
	C154.013611,170.242584 152.885239,171.055008 152.166504,171.962646 
	C151.463837,170.899063 150.283249,169.895401 150.141129,168.761551 
	C149.522034,163.822052 149.205002,158.844696 148.714142,153.428680 
z"/>
<path fill="#F47217" opacity="1.000000" stroke="none" 
	d="
M128.013718,167.993591 
	C121.491722,163.113708 115.276291,158.417770 108.436455,153.250076 
	C112.342278,150.573090 115.917595,148.122620 119.770439,145.481934 
	C127.446777,154.782959 134.797745,163.689743 142.315155,172.798187 
	C138.622650,175.006058 135.785797,174.369949 133.052521,171.812225 
	C131.607086,170.459641 129.905975,169.380264 128.013718,167.993591 
z"/>
<path fill="#030303" opacity="1.000000" stroke="none" 
	d="
M196.002136,220.995209 
	C205.804611,220.995209 215.107788,220.995209 224.644424,220.995209 
	C224.644424,222.386185 224.644424,223.468246 224.644424,225.013626 
	C219.023987,225.013626 213.275803,225.013626 207.119995,225.013626 
	C207.119995,229.532562 207.119995,233.619751 207.119995,238.066772 
	C203.983414,238.066772 201.252563,238.066772 198.051453,238.066772 
	C198.051453,234.140961 198.051453,230.068100 198.051453,225.506042 
	C191.896713,225.506042 186.155457,225.506042 180.093781,225.506042 
	C179.987885,223.836212 179.911591,222.632996 179.807739,220.995209 
	C185.243362,220.995209 190.373093,220.995209 196.002136,220.995209 
z"/>
<path fill="#080808" opacity="1.000000" stroke="none" 
	d="
M161.847748,198.371368 
	C163.203705,199.323807 164.869659,200.257477 164.893677,201.231628 
	C165.101227,209.648804 165.013123,218.073257 165.013123,226.752350 
	C162.016403,226.752350 159.286316,226.752350 156.079956,226.752350 
	C156.079956,222.267700 156.079956,217.710770 156.079956,212.848480 
	C153.690414,212.848480 151.766983,212.848480 149.748520,212.848480 
	C147.630508,205.888229 153.466049,209.145782 155.882965,207.676041 
	C155.882965,204.909332 155.882965,201.962219 155.882965,198.371353 
	C157.905075,198.371353 159.650787,198.371353 161.847748,198.371368 
z"/>
<path fill="#080808" opacity="1.000000" stroke="none" 
	d="
M155.963257,233.985931 
	C159.256744,233.985931 162.056290,233.985931 165.100189,233.985931 
	C165.016357,235.599152 164.951996,236.837570 164.874969,238.319992 
	C155.161209,238.319992 145.707672,238.287064 136.254593,238.337845 
	C132.948822,238.355606 131.318741,236.836304 131.310089,233.553055 
	C131.302322,230.605865 131.308441,227.658646 131.308441,224.492645 
	C134.414307,224.492645 137.014069,224.492645 140.108612,224.492645 
	C140.108612,227.480698 140.108612,230.547516 140.108612,233.985931 
	C145.549210,233.985931 150.509247,233.985931 155.963257,233.985931 
z"/>
<path fill="#1C62B6" opacity="1.000000" stroke="none" 
	d="
M148.513351,71.059456 
	C147.264282,68.206741 146.361755,65.332993 145.979630,62.229412 
	C146.666931,61.999950 146.833832,62.000324 147.000732,62.000702 
	C148.225372,64.711678 149.450012,67.422653 151.117767,71.114532 
	C152.490219,68.731125 153.224121,67.456604 154.585815,65.091873 
	C156.152054,68.727448 157.370880,71.556618 158.944885,75.210236 
	C161.123627,71.454063 163.067612,68.102623 165.021240,64.350014 
	C166.151428,65.938507 167.271988,67.928162 168.097351,70.360672 
	C166.554245,72.194290 165.306305,73.585060 164.058380,74.975830 
	C163.714005,76.052979 163.369614,77.130127 162.601990,78.613098 
	C161.513779,79.556374 160.848785,80.093826 160.183792,80.631287 
	C161.103485,81.087677 162.023193,81.544060 162.942886,82.000443 
	C162.942886,85.748695 162.942886,89.496956 162.942886,93.245209 
	C162.760651,93.271461 162.578415,93.297714 162.396179,93.323959 
	C160.467285,86.892860 158.538406,80.461754 156.609512,74.030647 
	C156.264542,74.088356 155.919556,74.146072 155.574570,74.203781 
	C156.503784,80.308365 157.432983,86.412949 158.362198,92.517532 
	C158.053024,92.569290 157.743866,92.621056 157.434708,92.672821 
	C155.536850,87.165901 153.638992,81.658981 152.102875,75.618820 
	C152.898773,74.339424 153.332947,73.593285 153.767136,72.847137 
	C153.371628,72.700401 152.976135,72.553658 152.580643,72.406921 
	C152.296265,73.376694 152.011887,74.346474 151.727509,75.316254 
	C150.771622,73.890305 149.815750,72.464363 148.513351,71.059456 
z"/>
<path fill="#1D64B7" opacity="1.000000" stroke="none" 
	d="
M164.013123,75.359070 
	C165.306305,73.585060 166.554245,72.194290 168.202148,70.695618 
	C168.602142,70.587723 168.562454,70.623344 168.470215,70.904297 
	C168.621628,71.442192 168.865265,71.699142 169.108902,71.956093 
	C169.108902,71.956093 169.024216,71.963318 169.046677,72.239777 
	C169.387115,73.008812 169.705078,73.501404 170.023071,73.993996 
	C170.336304,76.383102 170.649536,78.772217 170.529388,81.673798 
	C167.568008,83.300911 170.932373,88.393143 166.171280,88.000381 
	C166.093079,87.556274 166.014877,87.112175 166.250397,86.083725 
	C165.820892,83.000183 165.077652,80.500984 164.334427,78.001793 
	C164.212250,77.248634 164.090073,76.495476 164.013123,75.359070 
z"/>
<path fill="#1C62B6" opacity="1.000000" stroke="none" 
	d="
M166.161255,88.393150 
	C170.932373,88.393143 167.568008,83.300911 170.450104,82.094574 
	C170.383255,86.798409 169.962326,91.593925 169.541382,96.389450 
	C169.074234,96.476143 168.607086,96.562836 168.139938,96.649529 
	C167.477036,94.028320 166.814148,91.407120 166.161255,88.393150 
z"/>
<path fill="#1C62B6" opacity="1.000000" stroke="none" 
	d="
M149.993164,79.002243 
	C151.160156,83.488754 152.327148,87.975266 153.494156,92.461784 
	C153.115356,92.568008 152.736572,92.674232 152.357788,92.780457 
	C150.561356,88.779831 148.764923,84.779198 147.238525,80.283401 
	C148.336777,79.526237 149.164963,79.264236 149.993164,79.002243 
z"/>
<path fill="#1C62B7" opacity="1.000000" stroke="none" 
	d="
M150.022858,78.661499 
	C149.164963,79.264236 148.336777,79.526237 147.203094,79.914749 
	C146.598724,79.607651 146.299820,79.174026 145.904999,78.224960 
	C145.577606,77.477409 145.346115,77.245293 145.114639,77.013176 
	C145.072327,76.846031 145.029999,76.678886 144.995026,76.253220 
	C145.776428,75.665565 146.550476,75.336426 147.693481,75.307358 
	C148.623886,76.071480 149.185349,76.535522 149.746826,76.999565 
	C149.848740,77.439957 149.950638,77.880356 150.022858,78.661499 
z"/>
<path fill="#1C62B6" opacity="1.000000" stroke="none" 
	d="
M164.342560,78.378998 
	C165.077652,80.500984 165.820892,83.000183 166.291748,85.745674 
	C165.463150,83.580048 164.906921,81.168121 164.342560,78.378998 
z"/>
<path fill="#1D64B7" opacity="1.000000" stroke="none" 
	d="
M163.000397,81.627167 
	C162.023193,81.544060 161.103485,81.087677 160.183792,80.631287 
	C160.848785,80.093826 161.513779,79.556374 162.540344,79.009048 
	C162.953918,79.750748 163.005920,80.502312 163.000397,81.627167 
z"/>
<path fill="#1C62B6" opacity="1.000000" stroke="none" 
	d="
M149.758865,76.723984 
	C149.185349,76.535522 148.623886,76.071480 148.031036,75.308212 
	C148.170074,75.005684 148.340515,75.002373 148.766632,74.996452 
	C149.271851,75.478699 149.521378,75.963547 149.758865,76.723984 
z"/>
<path fill="#1C62B6" opacity="1.000000" stroke="none" 
	d="
M170.016724,73.688187 
	C169.705078,73.501404 169.387115,73.008812 169.070526,72.204605 
	C169.384735,72.389442 169.697556,72.885910 170.016724,73.688187 
z"/>
<path fill="#1C62B6" opacity="1.000000" stroke="none" 
	d="
M169.098679,71.709785 
	C168.865265,71.699142 168.621628,71.442192 168.486328,70.923607 
	C168.913208,70.834183 169.077805,71.101357 169.098679,71.709785 
z"/>
<path fill="#1C62B6" opacity="1.000000" stroke="none" 
	d="
M165.001419,63.678768 
	C164.772873,63.693844 164.498947,63.405697 164.176849,62.814163 
	C164.404465,62.799034 164.680252,63.087288 165.001419,63.678768 
z"/>
<path fill="#1C62B6" opacity="1.000000" stroke="none" 
	d="
M145.094238,77.285461 
	C145.346115,77.245293 145.577606,77.477409 145.871353,77.951904 
	C145.647034,77.982101 145.360428,77.769928 145.094238,77.285461 
z"/>
<path fill="#1BAF6A" opacity="1.000000" stroke="none" 
	d="
M228.359665,104.456573 
	C228.119461,104.684677 227.748016,104.722748 227.376587,104.760818 
	C227.395676,104.542671 227.414764,104.324524 227.675461,104.015884 
	C227.917053,103.925385 228.228424,104.266548 228.359665,104.456573 
z"/>
<path fill="#1BAF6A" opacity="1.000000" stroke="none" 
	d="
M223.915833,100.909233 
	C223.856201,101.254608 223.671478,101.462158 223.486755,101.669708 
	C223.413589,101.402916 223.340408,101.136124 223.395996,100.690117 
	C223.524796,100.510902 223.790741,100.771408 223.915833,100.909233 
z"/>
<path fill="#FEFEFE" opacity="1.000000" stroke="none" 
	d="
M243.449280,80.747971 
	C243.054565,80.486023 242.984451,80.014359 242.914337,79.542694 
	C243.200851,79.874542 243.487366,80.206390 243.449280,80.747971 
z"/>
<path fill="#FEFEFE" opacity="1.000000" stroke="none" 
	d="
M183.875610,107.093903 
	C183.458237,106.697395 183.300446,106.033592 183.142654,105.369797 
	C183.501434,105.515549 183.860229,105.661308 184.415924,106.030823 
	C184.453629,106.445259 184.294418,106.635933 183.875610,107.093903 
z"/>
<path fill="#FEFEFE" opacity="1.000000" stroke="none" 
	d="
M254.479431,81.479332 
	C254.835403,81.247131 255.191391,81.014938 255.547363,80.782738 
	C255.609894,81.148674 255.672409,81.514618 255.279953,81.848434 
	C254.824982,81.816315 254.479431,81.479332 254.479431,81.479332 
z"/>
<path fill="#FEFEFE" opacity="1.000000" stroke="none" 
	d="
M254.224319,83.226181 
	C253.815292,83.476006 253.406281,83.725838 252.997253,83.975662 
	C252.984909,83.612770 252.972549,83.249878 253.397888,82.844284 
	C253.965149,82.943123 254.094727,83.084648 254.224319,83.226181 
z"/>
<path fill="#FEFEFE" opacity="1.000000" stroke="none" 
	d="
M254.993057,81.989494 
	C255.007645,82.455872 254.854172,82.749069 254.462494,83.134224 
	C254.094727,83.084648 253.965149,82.943123 253.656967,82.575111 
	C253.675476,82.127129 253.889893,81.923882 254.300537,81.609108 
	C254.479431,81.479332 254.824982,81.816315 254.993057,81.989494 
z"/>
<path fill="#1C62B7" opacity="1.000000" stroke="none" 
	d="
M147.220490,61.838623 
	C146.833832,62.000324 146.666931,61.999950 146.249695,61.998642 
	C146.425354,61.486866 146.851364,60.976021 147.277374,60.465179 
	C147.331665,60.868969 147.385956,61.272758 147.220490,61.838623 
z"/>
<path fill="#FEFEFE" opacity="1.000000" stroke="none" 
	d="
M132.684875,111.081833 
	C132.125488,111.048927 131.761581,110.669373 131.397675,110.289825 
	C131.891891,110.438278 132.386124,110.586731 132.684875,111.081833 
z"/>
<path fill="#FEFEFE" opacity="1.000000" stroke="none" 
	d="
M142.637329,74.258453 
	C142.314240,73.738136 142.275345,73.015388 142.236450,72.292641 
	C142.561829,72.538231 142.887192,72.783821 143.335510,73.319824 
	C143.279465,73.758842 143.100510,73.907433 142.637329,74.258453 
z"/>
<path fill="#FEFEFE" opacity="1.000000" stroke="none" 
	d="
M168.328476,170.168732 
	C168.385406,169.448807 168.824768,168.868134 169.632599,168.393677 
	C169.571014,169.102600 169.140961,169.705292 168.328476,170.168732 
z"/>
<path fill="#1D64B7" opacity="1.000000" stroke="none" 
	d="
M151.786301,75.298630 
	C152.011887,74.346474 152.296265,73.376694 152.580643,72.406921 
	C152.976135,72.553658 153.371628,72.700401 153.767136,72.847137 
	C153.332947,73.593285 152.898773,74.339424 152.131561,75.240067 
	C151.798508,75.394569 151.845078,75.281006 151.786301,75.298630 
z"/>
</svg>